<svg width="420" height="98" xmlns="http://www.w3.org/2000/svg" xmlns:xlink="http://www.w3.org/1999/xlink" overflow="hidden"><defs><clipPath id="clip0"><path d="M430 311 850 311 850 409 430 409Z" fill-rule="evenodd" clip-rule="evenodd"/></clipPath></defs><g clip-path="url(#clip0)" transform="translate(-430 -311)"><path d="M467.394 358.288C464.98 358.288 462.976 359.22 461.383 361.083 459.789 362.946 458.992 365.706 458.992 369.362 458.992 373.557 459.824 376.657 461.488 378.661 463.152 380.665 465.18 381.667 467.57 381.667 469.867 381.667 471.777 380.747 473.301 378.907 474.824 377.067 475.586 374.05 475.586 369.854 475.586 365.94 474.801 363.034 473.23 361.136 471.66 359.237 469.715 358.288 467.394 358.288ZM596.336 358.042C594.18 358.042 592.398 358.827 590.992 360.397 589.586 361.968 588.894 364.1 588.918 366.796L603.683 366.796C603.613 363.936 602.875 361.762 601.469 360.274 600.062 358.786 598.351 358.042 596.336 358.042ZM521.5 351.327 531.379 351.327 531.379 388.663 521.5 388.663ZM595.738 350.483C601.293 350.483 605.676 352.317 608.887 355.985 612.098 359.653 613.633 365.272 613.492 372.843L588.742 372.843C588.812 375.772 589.609 378.052 591.133 379.68 592.656 381.309 594.555 382.124 596.828 382.124 598.375 382.124 599.676 381.702 600.73 380.858 601.785 380.014 602.582 378.655 603.121 376.78L612.965 378.432C611.699 382.042 609.701 384.79 606.971 386.677 604.24 388.563 600.824 389.507 596.723 389.507 590.23 389.507 585.426 387.386 582.308 383.143 579.848 379.745 578.617 375.456 578.617 370.276 578.617 364.089 580.234 359.243 583.469 355.739 586.703 352.235 590.793 350.483 595.738 350.483ZM557.426 350.483C561.973 350.483 565.588 351.462 568.271 353.419 570.955 355.376 572.883 358.358 574.055 362.366L564.316 364.124C563.988 362.178 563.244 360.714 562.084 359.729 560.924 358.745 559.418 358.253 557.566 358.253 555.105 358.253 553.142 359.102 551.678 360.802 550.213 362.501 549.48 365.343 549.48 369.327 549.48 373.757 550.224 376.886 551.713 378.714 553.201 380.542 555.199 381.456 557.707 381.456 559.582 381.456 561.117 380.923 562.312 379.856 563.508 378.79 564.351 376.956 564.844 374.354L574.547 376.007C573.539 380.46 571.605 383.823 568.746 386.096 565.887 388.37 562.055 389.507 557.25 389.507 551.789 389.507 547.435 387.784 544.189 384.339 540.943 380.893 539.32 376.124 539.32 370.03 539.32 363.866 540.949 359.067 544.207 355.634 547.465 352.2 551.871 350.483 557.426 350.483ZM510.762 350.483C513.012 350.483 515.18 351.104 517.266 352.346L514.207 360.96C512.543 359.882 510.996 359.343 509.566 359.343 508.183 359.343 507.012 359.723 506.051 360.485 505.09 361.247 504.334 362.624 503.783 364.616 503.232 366.608 502.957 370.78 502.957 377.132L502.957 388.663 493.078 388.663 493.078 351.327 502.254 351.327 502.254 356.636C503.824 354.128 505.236 352.475 506.49 351.678 507.744 350.882 509.168 350.483 510.762 350.483ZM470.066 350.483C474.402 350.483 478.082 352.182 481.105 355.581 484.129 358.979 485.641 363.714 485.641 369.784 485.641 376.018 484.117 380.864 481.07 384.321 478.023 387.778 474.332 389.507 469.996 389.507 467.933 389.507 466.064 389.096 464.389 388.276 462.713 387.456 460.949 386.05 459.098 384.057L459.098 402.866 449.219 402.866 449.219 351.327 458.43 351.327 458.43 356.811C459.625 354.936 461.242 353.413 463.281 352.241 465.32 351.069 467.582 350.483 470.066 350.483ZM521.5 337.124 531.379 337.124 531.379 346.264 521.5 346.264Z" fill="#FF0000" fill-rule="evenodd"/><path d="M467.39 358.8 464.36 359.441 461.791 361.426 460.129 364.748 459.521 369.435 459.642 372.29 460.128 374.717 460.845 376.75 461.896 378.326 464.52 380.533 466.005 381.047 467.556 381.219 470.544 380.575 472.953 378.578 473.881 377.127 474.597 375.157 475.027 372.762 475.145 369.892 475.022 367.226 474.538 364.928 473.818 363.009 472.888 361.498 470.42 359.499ZM596.391 358.61 593.659 359.133 591.4 360.755 589.939 363.326 589.529 366.35 603.118 366.35 602.603 363.207 601.142 360.635 598.945 359.133ZM467.291 357.799C467.362 357.784 467.436 357.784 467.507 357.801L470.757 358.551C470.831 358.568 470.9 358.601 470.959 358.649L473.584 360.774C473.628 360.81 473.666 360.853 473.695 360.901L474.695 362.526C474.712 362.553 474.726 362.582 474.738 362.612L475.488 364.612C475.496 364.636 475.503 364.66 475.509 364.685L476.009 367.06C476.014 367.086 476.018 367.113 476.019 367.14L476.144 369.934 476.012 372.939 475.574 375.376C475.569 375.404 475.562 375.432 475.552 375.459L474.802 377.521C474.789 377.556 474.773 377.589 474.753 377.62L473.753 379.182C473.725 379.226 473.691 379.265 473.651 379.298L471.089 381.423C471.027 381.474 470.953 381.51 470.875 381.527L467.687 382.214C467.635 382.226 467.58 382.228 467.527 382.222L465.839 382.035C465.802 382.031 465.766 382.023 465.731 382.01L464.106 381.448C464.048 381.428 463.994 381.397 463.948 381.358L461.198 379.046C461.161 379.015 461.13 378.98 461.103 378.94L459.978 377.253C459.955 377.218 459.937 377.181 459.923 377.142L459.173 375.017C459.165 374.994 459.159 374.972 459.154 374.948L458.654 372.448C458.649 372.423 458.646 372.397 458.645 372.372L458.52 369.434C458.519 369.406 458.52 369.377 458.524 369.348L459.149 364.536C459.156 364.481 459.172 364.427 459.197 364.377L460.947 360.877C460.981 360.81 461.029 360.751 461.089 360.705L463.839 358.58C463.898 358.534 463.967 358.502 464.041 358.486ZM596.3 357.609C596.365 357.597 596.431 357.597 596.495 357.611L599.245 358.173C599.31 358.186 599.372 358.213 599.427 358.25L601.802 359.875C601.865 359.918 601.917 359.975 601.954 360.041L603.517 362.791C603.546 362.842 603.566 362.899 603.575 362.957L604.2 366.77C604.224 366.914 604.183 367.062 604.088 367.174 603.993 367.286 603.854 367.35 603.707 367.35L588.957 367.35C588.813 367.35 588.675 367.288 588.58 367.179 588.485 367.071 588.442 366.926 588.461 366.783L588.961 363.096C588.97 363.032 588.991 362.971 589.022 362.916L590.585 360.166C590.62 360.103 590.669 360.049 590.728 360.007L593.165 358.257C593.224 358.214 593.292 358.185 593.363 358.172ZM522.019 351.85 522.019 388.163 530.894 388.163 530.894 351.85ZM510.771 351.042 508.657 351.336 506.795 352.151 504.894 353.873 502.675 356.955C502.548 357.131 502.322 357.205 502.116 357.139 501.909 357.072 501.769 356.88 501.769 356.663L501.769 351.85 493.582 351.85 493.582 388.163 502.457 388.163 502.457 377.156 502.52 372.761 502.709 369.243 502.967 366.44 503.342 364.565C503.348 364.535 503.356 364.506 503.368 364.477L504.368 361.977C504.385 361.935 504.408 361.894 504.436 361.858L505.686 360.233C505.727 360.179 505.779 360.135 505.838 360.102L507.4 359.227C507.451 359.198 507.507 359.179 507.565 359.169L509.502 358.857C509.56 358.847 509.62 358.848 509.677 358.86L511.927 359.297C511.972 359.306 512.015 359.32 512.056 359.341L513.925 360.275 516.642 352.624 513.948 351.462ZM470.088 351.041 466.647 351.463 463.578 352.727 460.927 354.655 458.842 357.17C458.707 357.332 458.486 357.392 458.287 357.321 458.089 357.249 457.957 357.061 457.957 356.85L457.957 351.85 449.769 351.85 449.769 402.413 458.644 402.413 458.644 384.1C458.644 383.9 458.764 383.72 458.948 383.641 459.132 383.562 459.345 383.6 459.489 383.738L462.141 386.267 464.614 387.835 467.192 388.734 470.021 389.035 473.036 388.734 475.806 387.77 478.402 386.2 480.701 384.023 482.642 381.232 484.04 377.949 484.833 374.19 485.145 369.817 484.898 365.547 484.042 361.879 482.704 358.657 480.767 355.933 478.468 353.815 475.872 352.245 473.103 351.342ZM557.446 351.04 553.605 351.345 550.202 352.257 547.174 353.831 544.572 356.01 542.516 358.731 541.057 362.013 540.14 365.741 539.833 370.038 540.14 374.273 541.057 378.062 542.514 381.281 544.573 384.006 547.115 386.185 550.082 387.759 553.484 388.731 557.242 389.039 560.638 388.853 563.622 388.184 566.227 387.154 568.46 385.705 570.39 383.896 571.959 381.663 573.166 379.019 573.94 376.437 565.246 374.979 564.373 377.87C564.357 377.922 564.333 377.972 564.301 378.016L562.739 380.203C562.697 380.262 562.643 380.31 562.581 380.346L560.519 381.534C560.464 381.565 560.404 381.586 560.342 381.595L557.779 381.97C557.722 381.978 557.664 381.977 557.607 381.965L554.232 381.278C554.154 381.262 554.081 381.227 554.018 381.177L551.456 379.115C551.411 379.079 551.373 379.036 551.344 378.987L550.344 377.362C550.323 377.33 550.307 377.295 550.295 377.258L549.608 375.196C549.599 375.171 549.593 375.146 549.589 375.12L549.145 372.433 549.02 369.328 549.153 366.51 549.59 364.135C549.595 364.107 549.603 364.08 549.612 364.053L550.3 362.178C550.312 362.146 550.327 362.115 550.345 362.085L551.283 360.585C551.315 360.534 551.357 360.488 551.405 360.452L553.968 358.514C554.029 358.467 554.101 358.436 554.177 358.422L557.489 357.797C557.544 357.786 557.599 357.785 557.654 357.793L560.217 358.168C560.278 358.177 560.336 358.197 560.39 358.227L562.39 359.352C562.449 359.386 562.501 359.431 562.543 359.486L563.918 361.298C563.952 361.344 563.979 361.395 563.996 361.449L564.676 363.593 573.413 362.025 572.624 359.804 571.35 357.438 569.778 355.444 568.034 353.88 565.933 352.619 563.47 351.778ZM595.771 351.04 592.305 351.344 589.217 352.312 586.374 353.885 583.892 356.125 581.829 358.916 580.37 362.2 579.453 365.99 579.143 370.255 579.384 373.938 580.064 377.276 581.16 380.258 582.731 382.857 585.336 385.583 588.476 387.515 592.301 388.669 596.759 389.035 602.256 388.364 606.731 386.307 610.112 382.987 612.26 378.853 603.455 377.348 602.607 379.415C602.588 379.461 602.563 379.503 602.532 379.541L601.157 381.229C601.115 381.28 601.064 381.322 601.005 381.354L599.255 382.291C599.204 382.319 599.148 382.337 599.09 382.345L596.903 382.658C596.846 382.666 596.789 382.664 596.734 382.653L593.609 382.028C593.54 382.014 593.475 381.986 593.418 381.946L590.856 380.134C590.799 380.093 590.751 380.041 590.715 379.981L588.965 377.044C588.932 376.989 588.911 376.929 588.901 376.866L588.276 372.929C588.253 372.784 588.294 372.637 588.389 372.526 588.484 372.414 588.623 372.35 588.769 372.35L613.001 372.35 612.834 367.594 611.974 363.11 610.573 359.334 608.514 356.367 605.974 354.009 603.011 352.376 599.613 351.345ZM521.519 350.85 531.394 350.85C531.671 350.85 531.894 351.074 531.894 351.35L531.894 388.663C531.894 388.939 531.671 389.163 531.394 389.163L521.519 389.163C521.243 389.163 521.019 388.939 521.019 388.663L521.019 351.35C521.019 351.074 521.243 350.85 521.519 350.85ZM510.835 350.042 514.147 350.48C514.193 350.486 514.238 350.498 514.28 350.516L517.467 351.891C517.709 351.996 517.829 352.27 517.741 352.518L514.678 361.143C514.63 361.278 514.527 361.386 514.394 361.439 514.261 361.493 514.111 361.487 513.983 361.423L511.669 360.266 509.574 359.858 507.811 360.142 506.416 360.924 505.27 362.413 504.313 364.806 503.947 366.636 503.705 369.333 503.519 372.815 503.457 377.17 503.457 388.663C503.457 388.939 503.233 389.163 502.957 389.163L493.082 389.163C492.806 389.163 492.582 388.939 492.582 388.663L492.582 351.35C492.582 351.074 492.806 350.85 493.082 350.85L502.269 350.85C502.546 350.85 502.769 351.074 502.769 351.35L502.769 355.113 504.114 353.246C504.134 353.217 504.158 353.191 504.184 353.167L506.184 351.355C506.224 351.319 506.269 351.289 506.319 351.267L508.319 350.392C508.361 350.374 508.405 350.361 508.451 350.355L510.701 350.043C510.745 350.036 510.79 350.036 510.835 350.042ZM470.132 350.04 473.257 350.353C473.292 350.356 473.328 350.364 473.362 350.375L476.237 351.313C476.273 351.324 476.308 351.34 476.341 351.36L479.028 352.985C479.057 353.002 479.084 353.022 479.108 353.045L481.483 355.233C481.509 355.256 481.532 355.282 481.552 355.311L483.552 358.123C483.574 358.154 483.592 358.187 483.606 358.221L484.981 361.534C484.992 361.559 485 361.585 485.006 361.612L485.881 365.362C485.888 365.39 485.892 365.418 485.894 365.446L486.144 369.759 485.831 374.26 485.009 378.203C485.002 378.235 484.992 378.266 484.979 378.296L483.542 381.671C483.529 381.703 483.512 381.733 483.492 381.761L481.492 384.636C481.473 384.664 481.451 384.69 481.426 384.713L479.051 386.963C479.025 386.988 478.996 387.01 478.966 387.028L476.278 388.653C476.248 388.671 476.217 388.686 476.184 388.698L473.309 389.698C473.272 389.711 473.233 389.719 473.194 389.723L470.069 390.035C470.035 390.039 470.001 390.039 469.967 390.035L467.029 389.723C466.991 389.719 466.953 389.71 466.917 389.697L464.23 388.76C464.194 388.747 464.159 388.731 464.127 388.71L461.564 387.085C461.536 387.068 461.511 387.047 461.487 387.025L459.644 385.268 459.644 402.913C459.644 403.189 459.421 403.413 459.144 403.413L449.269 403.413C448.993 403.413 448.769 403.189 448.769 402.913L448.769 351.35C448.769 351.074 448.993 350.85 449.269 350.85L458.457 350.85C458.733 350.85 458.957 351.074 458.957 351.35L458.957 355.464 460.197 353.969C460.224 353.937 460.254 353.908 460.288 353.884L463.038 351.884C463.07 351.86 463.105 351.841 463.142 351.826L466.329 350.513C466.37 350.496 466.414 350.485 466.458 350.479L470.021 350.042C470.058 350.037 470.095 350.037 470.132 350.04ZM595.809 350.039 599.746 350.352C599.782 350.355 599.818 350.361 599.852 350.372L603.352 351.434C603.385 351.445 603.418 351.458 603.448 351.475L606.511 353.162C606.547 353.182 606.58 353.206 606.61 353.234L609.235 355.671C609.261 355.696 609.285 355.723 609.305 355.753L611.43 358.815C611.454 358.85 611.474 358.887 611.488 358.926L612.926 362.801C612.935 362.827 612.943 362.854 612.948 362.881L613.823 367.444C613.828 367.469 613.831 367.495 613.832 367.52L614.019 372.833C614.024 372.968 613.973 373.1 613.879 373.198 613.785 373.295 613.655 373.35 613.519 373.35L589.355 373.35 589.873 376.615 591.52 379.378 593.909 381.068 596.846 381.656 598.861 381.368 600.445 380.519 601.71 378.967 602.682 376.598C602.771 376.382 602.998 376.256 603.229 376.295L613.104 377.983C613.261 378.009 613.396 378.11 613.467 378.253 613.538 378.396 613.537 378.564 613.463 378.706L610.963 383.518C610.939 383.565 610.907 383.608 610.87 383.645L607.37 387.082C607.329 387.123 607.281 387.156 607.228 387.18L602.603 389.305C602.556 389.326 602.506 389.34 602.455 389.347L596.83 390.034C596.796 390.038 596.762 390.039 596.728 390.036L592.166 389.661C592.131 389.658 592.096 389.652 592.063 389.642L588.125 388.454C588.084 388.442 588.044 388.424 588.007 388.401L584.757 386.401C584.721 386.379 584.688 386.352 584.658 386.321L581.97 383.508C581.945 383.482 581.923 383.453 581.904 383.422L580.279 380.734C580.262 380.707 580.249 380.678 580.238 380.648L579.113 377.585C579.104 377.562 579.097 377.537 579.092 377.513L578.404 374.138 578.146 370.321 578.458 365.877C578.46 365.85 578.464 365.822 578.471 365.795L579.408 361.92C579.416 361.891 579.425 361.862 579.438 361.835L580.938 358.46C580.952 358.427 580.971 358.395 580.992 358.366L583.117 355.491C583.137 355.464 583.16 355.439 583.184 355.417L585.747 353.104C585.775 353.079 585.806 353.056 585.84 353.038L588.777 351.413C588.807 351.397 588.838 351.383 588.87 351.373L592.057 350.373C592.092 350.362 592.127 350.355 592.163 350.352L595.726 350.04C595.753 350.037 595.781 350.037 595.809 350.039ZM557.417 350.039C557.451 350.037 557.484 350.038 557.518 350.042L563.643 350.792C563.677 350.796 563.711 350.804 563.743 350.815L566.306 351.69C566.339 351.701 566.371 351.716 566.402 351.734L568.589 353.047C568.616 353.063 568.642 353.082 568.666 353.103L570.478 354.728C570.5 354.747 570.519 354.768 570.537 354.791L572.162 356.853C572.18 356.876 572.196 356.9 572.21 356.926L573.522 359.363C573.534 359.386 573.544 359.409 573.553 359.433L574.553 362.245C574.602 362.384 574.588 362.537 574.514 362.664 574.441 362.791 574.315 362.879 574.17 362.905L564.42 364.655C564.173 364.699 563.931 364.553 563.855 364.314L563.069 361.834 561.809 360.173 559.98 359.144 557.592 358.795 554.477 359.382 552.082 361.194 551.221 362.571 550.566 364.358 550.136 366.691 550.019 369.373 550.144 372.392 550.569 374.917 551.226 376.888 552.15 378.39 554.551 380.322 557.721 380.968 560.103 380.619 561.988 379.534 563.44 377.502 564.416 374.268C564.488 374.027 564.729 373.878 564.977 373.92L574.665 375.545C574.806 375.569 574.931 375.652 575.006 375.774 575.082 375.896 575.102 376.044 575.061 376.182L574.123 379.307 572.85 382.12C572.837 382.148 572.821 382.175 572.804 382.2L571.179 384.513C571.159 384.541 571.136 384.567 571.111 384.59L569.111 386.465C569.09 386.485 569.066 386.504 569.042 386.52L566.729 388.02C566.701 388.038 566.672 388.053 566.641 388.065L563.953 389.128C563.929 389.137 563.904 389.145 563.879 389.151L560.816 389.838C560.789 389.844 560.762 389.848 560.734 389.85L557.297 390.037 553.354 389.724C553.321 389.721 553.289 389.715 553.257 389.706L549.757 388.706C549.723 388.697 549.691 388.683 549.66 388.667L546.598 387.042C546.565 387.025 546.534 387.004 546.507 386.98L543.882 384.73C543.854 384.707 543.83 384.68 543.808 384.652L541.683 381.839C541.661 381.81 541.642 381.778 541.626 381.744L540.126 378.432C540.114 378.403 540.103 378.373 540.096 378.343L539.158 374.468C539.152 374.441 539.148 374.414 539.146 374.387L538.833 370.074C538.831 370.05 538.831 370.026 538.833 370.002L539.146 365.627C539.148 365.599 539.152 365.571 539.159 365.543L540.096 361.731C540.103 361.702 540.113 361.674 540.125 361.647L541.625 358.272C541.641 358.237 541.66 358.204 541.683 358.174L543.808 355.361C543.831 355.331 543.857 355.304 543.886 355.279L546.573 353.029C546.601 353.006 546.632 352.986 546.664 352.969L549.789 351.344C549.821 351.328 549.855 351.314 549.89 351.305L553.39 350.367C553.419 350.36 553.45 350.354 553.48 350.352ZM522.019 337.663 522.019 345.788 530.894 345.788 530.894 337.663ZM521.519 336.663 531.394 336.663C531.671 336.663 531.894 336.887 531.894 337.163L531.894 346.288C531.894 346.564 531.671 346.788 531.394 346.788L521.519 346.788C521.243 346.788 521.019 346.564 521.019 346.288L521.019 337.163C521.019 336.887 521.243 336.663 521.519 336.663Z" fill="#FF0000" fill-rule="evenodd"/><path d="M465.063 355.956C462.649 355.956 460.645 356.888 459.051 358.751 457.457 360.614 456.66 363.374 456.66 367.03 456.66 371.226 457.492 374.325 459.157 376.329 460.821 378.333 462.848 379.335 465.239 379.335 467.535 379.335 469.446 378.415 470.969 376.575 472.492 374.736 473.254 371.718 473.254 367.523 473.254 363.609 472.469 360.702 470.899 358.804 469.328 356.905 467.383 355.956 465.063 355.956ZM594.004 355.71C591.848 355.71 590.067 356.495 588.66 358.066 587.254 359.636 586.563 361.769 586.586 364.464L601.352 364.464C601.281 361.605 600.543 359.431 599.137 357.943 597.731 356.454 596.02 355.71 594.004 355.71ZM519.168 348.995 529.047 348.995 529.047 386.331 519.168 386.331ZM593.406 348.152C598.961 348.152 603.344 349.986 606.555 353.654 609.766 357.321 611.301 362.941 611.16 370.511L586.41 370.511C586.481 373.441 587.278 375.72 588.801 377.349 590.324 378.978 592.223 379.792 594.496 379.792 596.043 379.792 597.344 379.37 598.399 378.527 599.453 377.683 600.25 376.323 600.789 374.448L610.633 376.101C609.367 379.71 607.369 382.458 604.639 384.345 601.908 386.232 598.492 387.175 594.391 387.175 587.899 387.175 583.094 385.054 579.977 380.812 577.516 377.413 576.285 373.124 576.285 367.945 576.285 361.757 577.903 356.911 581.137 353.407 584.371 349.904 588.461 348.152 593.406 348.152ZM555.094 348.152C559.641 348.152 563.256 349.13 565.94 351.087 568.623 353.044 570.551 356.027 571.723 360.034L561.985 361.792C561.656 359.847 560.912 358.382 559.752 357.398 558.592 356.413 557.086 355.921 555.235 355.921 552.774 355.921 550.811 356.771 549.346 358.47 547.881 360.169 547.149 363.011 547.149 366.995 547.149 371.425 547.893 374.554 549.381 376.382 550.869 378.21 552.867 379.124 555.375 379.124 557.25 379.124 558.785 378.591 559.981 377.525 561.176 376.458 562.02 374.624 562.512 372.023L572.215 373.675C571.207 378.128 569.274 381.491 566.414 383.765 563.555 386.038 559.723 387.175 554.918 387.175 549.457 387.175 545.104 385.452 541.858 382.007 538.612 378.562 536.989 373.792 536.989 367.698 536.989 361.534 538.617 356.736 541.875 353.302 545.133 349.868 549.539 348.152 555.094 348.152ZM508.43 348.152C510.68 348.152 512.848 348.773 514.934 350.015L511.875 358.628C510.211 357.55 508.664 357.011 507.235 357.011 505.852 357.011 504.68 357.392 503.719 358.154 502.758 358.915 502.002 360.292 501.451 362.284 500.901 364.277 500.625 368.448 500.625 374.8L500.625 386.331 490.746 386.331 490.746 348.995 499.922 348.995 499.922 354.304C501.492 351.796 502.905 350.144 504.158 349.347 505.412 348.55 506.836 348.152 508.43 348.152ZM467.735 348.152C472.071 348.152 475.75 349.851 478.774 353.249 481.797 356.648 483.309 361.382 483.309 367.452 483.309 373.687 481.785 378.532 478.739 381.989 475.692 385.446 472 387.175 467.664 387.175 465.602 387.175 463.733 386.765 462.057 385.945 460.381 385.124 458.617 383.718 456.766 381.726L456.766 400.534 446.887 400.534 446.887 348.995 456.098 348.995 456.098 354.48C457.293 352.605 458.91 351.081 460.949 349.909 462.989 348.737 465.25 348.152 467.735 348.152ZM519.168 334.792 529.047 334.792 529.047 343.933 519.168 343.933Z" stroke="#FF0000" stroke-linejoin="round" stroke-miterlimit="10" fill="#FFA7A7" fill-rule="evenodd"/><text fill="#000000" fill-opacity="0" font-family="Arial,Arial_MSFontService,sans-serif" font-size="65.7422" x="446.887" y="392.317">price</text><path d="M698.101 370.733C696.836 371.155 694.832 371.659 692.09 372.245 689.348 372.831 687.555 373.405 686.711 373.968 685.422 374.882 684.777 376.042 684.777 377.448 684.777 378.831 685.293 380.026 686.324 381.034 687.355 382.042 688.668 382.546 690.262 382.546 692.043 382.546 693.742 381.96 695.359 380.788 696.555 379.897 697.34 378.807 697.715 377.518 697.973 376.675 698.101 375.069 698.101 372.702ZM820.336 358.042C818.18 358.042 816.398 358.827 814.992 360.397 813.586 361.968 812.894 364.1 812.918 366.796L827.683 366.796C827.613 363.936 826.875 361.762 825.469 360.274 824.062 358.786 822.351 358.042 820.336 358.042ZM777.566 358.042C775.199 358.042 773.248 358.962 771.713 360.802 770.178 362.641 769.41 365.448 769.41 369.221 769.41 373.182 770.178 376.083 771.713 377.923 773.248 379.762 775.141 380.682 777.391 380.682 779.805 380.682 781.844 379.739 783.508 377.852 785.172 375.966 786.004 373.171 786.004 369.468 786.004 365.6 785.207 362.729 783.613 360.854 782.019 358.979 780.004 358.042 777.566 358.042ZM717.289 351.327 727.168 351.327 727.168 368.483C727.168 373.733 727.349 376.95 727.713 378.134 728.076 379.317 728.738 380.255 729.699 380.946 730.66 381.637 731.879 381.983 733.355 381.983 735.043 381.983 736.555 381.52 737.891 380.595 739.226 379.669 740.141 378.52 740.633 377.149 741.125 375.778 741.371 372.421 741.371 367.077L741.371 351.327 751.25 351.327 751.25 388.663 742.074 388.663 742.074 383.073C740.715 385.065 738.928 386.636 736.713 387.784 734.498 388.932 732.16 389.507 729.699 389.507 727.191 389.507 724.941 388.956 722.949 387.854 720.957 386.753 719.516 385.206 718.625 383.214 717.734 381.221 717.289 378.468 717.289 374.952ZM819.738 350.483C825.293 350.483 829.676 352.317 832.887 355.985 836.098 359.653 837.633 365.272 837.492 372.843L812.742 372.843C812.812 375.772 813.609 378.052 815.133 379.68 816.656 381.309 818.555 382.124 820.828 382.124 822.375 382.124 823.676 381.702 824.73 380.858 825.785 380.014 826.582 378.655 827.121 376.78L836.965 378.432C835.699 382.042 833.701 384.79 830.971 386.677 828.24 388.563 824.824 389.507 820.723 389.507 814.23 389.507 809.426 387.386 806.308 383.143 803.848 379.745 802.617 375.456 802.617 370.276 802.617 364.089 804.234 359.243 807.469 355.739 810.703 352.235 814.793 350.483 819.738 350.483ZM775.035 350.483C779.652 350.483 783.461 352.511 786.461 356.565L786.461 351.327 795.707 351.327 795.707 384.831C795.707 389.237 795.344 392.53 794.617 394.71 793.891 396.889 792.871 398.6 791.558 399.843 790.246 401.085 788.494 402.057 786.303 402.761 784.111 403.464 781.34 403.815 777.988 403.815 771.66 403.815 767.172 402.731 764.523 400.563 761.875 398.395 760.551 395.647 760.551 392.319 760.551 391.991 760.562 391.593 760.586 391.124L771.871 392.495C772.058 393.807 772.492 394.71 773.172 395.202 774.109 395.905 775.586 396.257 777.601 396.257 780.18 396.257 782.113 395.87 783.402 395.096 784.269 394.581 784.926 393.749 785.371 392.6 785.676 391.78 785.828 390.268 785.828 388.065L785.828 382.616C782.875 386.647 779.148 388.663 774.648 388.663 769.633 388.663 765.66 386.542 762.73 382.3 760.433 378.948 759.285 374.776 759.285 369.784 759.285 363.526 760.791 358.745 763.803 355.44 766.814 352.136 770.558 350.483 775.035 350.483ZM692.09 350.483C696.496 350.483 699.777 351.005 701.933 352.048 704.09 353.091 705.607 354.415 706.486 356.02 707.365 357.626 707.805 360.573 707.805 364.862L707.699 376.393C707.699 379.675 707.857 382.095 708.174 383.653 708.49 385.212 709.082 386.882 709.949 388.663L700.176 388.663C699.918 388.007 699.601 387.034 699.226 385.745 699.062 385.159 698.945 384.772 698.875 384.585 697.187 386.225 695.383 387.456 693.461 388.276 691.539 389.096 689.488 389.507 687.308 389.507 683.465 389.507 680.435 388.464 678.221 386.378 676.006 384.292 674.898 381.655 674.898 378.468 674.898 376.358 675.402 374.477 676.41 372.825 677.418 371.173 678.83 369.907 680.646 369.028 682.463 368.149 685.082 367.382 688.504 366.725 693.121 365.858 696.32 365.05 698.101 364.3L698.101 363.315C698.101 361.417 697.633 360.063 696.695 359.255 695.758 358.446 693.988 358.042 691.387 358.042 689.629 358.042 688.258 358.387 687.273 359.079 686.289 359.77 685.492 360.983 684.883 362.718L675.918 361.1C676.926 357.491 678.66 354.819 681.121 353.085 683.582 351.35 687.238 350.483 692.09 350.483ZM645.371 336.245C651.769 336.245 656.767 337.587 660.365 340.27 663.963 342.954 666.277 346.663 667.308 351.397L656.973 353.331C656.246 350.8 654.881 348.802 652.877 347.337 650.873 345.872 648.371 345.139 645.371 345.139 640.824 345.139 637.209 346.581 634.525 349.464 631.842 352.346 630.5 356.624 630.5 362.296 630.5 368.413 631.859 373.001 634.578 376.059 637.297 379.118 640.859 380.647 645.266 380.647 647.445 380.647 649.631 380.22 651.822 379.364 654.014 378.509 655.894 377.471 657.465 376.253L657.465 369.714 645.547 369.714 645.547 361.03 667.976 361.03 667.976 381.561C665.797 383.671 662.639 385.528 658.502 387.134 654.365 388.739 650.176 389.542 645.933 389.542 640.543 389.542 635.844 388.411 631.836 386.149 627.828 383.887 624.816 380.653 622.801 376.446 620.785 372.239 619.777 367.663 619.777 362.718 619.777 357.35 620.902 352.581 623.152 348.409 625.402 344.237 628.695 341.038 633.031 338.811 636.336 337.1 640.449 336.245 645.371 336.245Z" fill="#00B050" fill-rule="evenodd"/><path d="M697.644 371.448 695.843 371.957 692.256 372.775 688.866 373.638 687.063 374.394 685.785 375.784 685.344 377.491 685.678 379.215 686.688 380.673 688.332 381.751 690.272 382.093 692.728 381.684 695.096 380.381 696.483 379.052 697.289 377.384 697.583 375.677 697.644 372.715ZM698.009 370.307C698.159 370.264 698.321 370.295 698.446 370.389 698.571 370.484 698.644 370.631 698.644 370.788L698.644 372.736 698.582 375.736C698.581 375.761 698.579 375.786 698.575 375.81L698.262 377.623C698.254 377.669 698.24 377.713 698.22 377.755L697.345 379.568C697.319 379.621 697.283 379.67 697.24 379.711L695.74 381.149C695.709 381.179 695.674 381.205 695.635 381.226L693.135 382.601C693.086 382.628 693.032 382.647 692.977 382.656L690.352 383.094C690.296 383.103 690.238 383.103 690.182 383.093L688.057 382.718C687.991 382.706 687.927 382.681 687.87 382.644L686.058 381.456C686.004 381.421 685.957 381.375 685.921 381.322L684.796 379.697C684.756 379.641 684.729 379.576 684.716 379.508L684.341 377.57C684.327 377.497 684.329 377.422 684.348 377.35L684.848 375.413C684.868 375.333 684.908 375.26 684.964 375.199L686.401 373.637C686.45 373.584 686.51 373.542 686.576 373.514L688.514 372.702C688.536 372.692 688.56 372.684 688.584 372.678L692.033 371.8 695.571 370.994ZM777.583 358.611 774.552 359.252 772.166 361.173 770.506 364.434 769.958 369.243 770.081 372.016 770.502 374.276 771.219 376.127 772.15 377.64 774.555 379.575 777.399 380.214 780.556 379.571 783.128 377.584 784.91 374.197 785.518 369.455 785.397 366.853 784.919 364.641 783.247 361.238 780.68 359.254ZM820.391 358.61 817.659 359.133 815.4 360.755 813.939 363.326 813.529 366.35 827.118 366.35 826.603 363.207 825.142 360.635 822.945 359.133ZM777.683 357.611 780.996 358.298C781.07 358.314 781.14 358.346 781.2 358.392L783.95 360.517C784.011 360.564 784.059 360.624 784.093 360.692L785.843 364.255C785.861 364.291 785.875 364.33 785.883 364.37L786.383 366.682C786.389 366.709 786.393 366.737 786.394 366.765L786.519 369.452C786.52 369.481 786.519 369.51 786.515 369.539L785.89 374.414C785.883 374.473 785.865 374.53 785.837 374.583L783.962 378.146C783.928 378.209 783.882 378.265 783.825 378.309L781.075 380.434C781.015 380.48 780.944 380.513 780.869 380.528L777.494 381.215C777.425 381.229 777.354 381.229 777.285 381.213L774.222 380.526C774.148 380.509 774.078 380.475 774.018 380.427L771.456 378.365C771.411 378.329 771.373 378.286 771.344 378.237L770.344 376.612C770.328 376.587 770.314 376.559 770.303 376.531L769.553 374.593C769.542 374.564 769.533 374.534 769.528 374.503L769.082 372.06 768.957 369.248C768.956 369.221 768.957 369.195 768.96 369.169L769.523 364.231C769.529 364.172 769.547 364.114 769.574 364.061L771.324 360.624C771.356 360.561 771.401 360.505 771.456 360.461L774.018 358.398C774.08 358.349 774.151 358.315 774.228 358.299L777.478 357.611C777.546 357.597 777.616 357.597 777.683 357.611ZM820.3 357.609C820.365 357.597 820.431 357.597 820.495 357.611L823.245 358.173C823.31 358.186 823.372 358.213 823.427 358.25L825.802 359.875C825.864 359.918 825.917 359.975 825.954 360.041L827.517 362.791C827.546 362.842 827.566 362.899 827.575 362.957L828.2 366.77C828.224 366.914 828.183 367.062 828.088 367.174 827.993 367.286 827.854 367.35 827.707 367.35L812.957 367.35C812.813 367.35 812.675 367.288 812.58 367.179 812.485 367.071 812.442 366.926 812.461 366.783L812.961 363.096C812.97 363.032 812.991 362.971 813.022 362.916L814.585 360.166C814.62 360.103 814.669 360.049 814.728 360.007L817.165 358.257C817.224 358.214 817.292 358.185 817.363 358.172ZM717.832 351.85 717.831 374.942 718.14 379.578 719.105 383.017 720.768 385.57 723.204 387.471 726.264 388.611 729.707 389.034 733.211 388.611 736.539 387.341 739.435 385.41 741.703 382.774C741.839 382.616 742.06 382.559 742.256 382.632 742.452 382.704 742.582 382.891 742.582 383.1L742.582 388.163 750.769 388.163 750.769 351.85 741.894 351.85 741.894 367.109 741.831 370.747 741.703 373.721 741.444 375.899 741.132 377.274C741.122 377.319 741.105 377.363 741.083 377.403L740.02 379.341C739.993 379.391 739.957 379.436 739.914 379.474L738.227 380.974C738.194 381.003 738.157 381.028 738.118 381.048L735.993 382.11C735.947 382.133 735.898 382.149 735.847 382.157L733.472 382.532C733.426 382.539 733.379 382.54 733.332 382.534L731.332 382.284C731.279 382.277 731.226 382.262 731.177 382.238L729.49 381.426C729.439 381.401 729.393 381.369 729.353 381.329L728.166 380.141C728.124 380.1 728.09 380.051 728.065 379.997L727.315 378.372C727.299 378.337 727.287 378.299 727.279 378.261L727.021 376.958 726.832 374.862 726.769 372.109 726.707 368.538 726.707 351.85ZM775.078 351.041 771.933 351.343 769.094 352.249 766.502 353.696 764.21 355.807 762.333 358.471 760.935 361.691 760.143 365.385 759.831 369.762 760.017 373.348 760.678 376.496 761.727 379.456 763.181 382.062 765.483 384.728 768.193 386.655 771.26 387.797 774.704 388.16 777.835 387.799 780.592 386.72 783.122 384.912 785.461 382.327C785.6 382.174 785.819 382.122 786.012 382.196 786.205 382.271 786.332 382.456 786.332 382.663L786.331 388.123 786.199 390.938 785.887 392.688C785.877 392.741 785.859 392.792 785.834 392.839L785.022 394.339C784.994 394.39 784.958 394.435 784.914 394.474L783.789 395.474C783.741 395.517 783.686 395.549 783.626 395.571L781.188 396.446C781.149 396.46 781.107 396.469 781.065 396.473L777.69 396.786C777.659 396.789 777.628 396.789 777.597 396.786L774.972 396.536C774.918 396.53 774.865 396.516 774.815 396.494L773.002 395.682C772.926 395.648 772.86 395.595 772.81 395.529L771.997 394.467C771.961 394.42 771.934 394.367 771.917 394.31L771.512 392.995 761.116 391.724 761.083 392.337 761.323 394.617 762.035 396.693 763.223 398.535 764.895 400.206 767.108 401.582 770.016 402.551 773.666 403.163 777.992 403.351 782.577 403.103 786.179 402.31 789.021 401.1 791.233 399.486 792.901 397.4 794.173 394.555 794.649 392.844 794.958 390.628 795.144 387.965 795.207 384.85 795.207 351.85 787.019 351.85 787.019 356.6C787.019 356.808 786.891 356.994 786.696 357.068 786.502 357.142 786.282 357.087 786.145 356.931L783.811 354.291 781.162 352.485 778.277 351.403ZM819.771 351.04 816.305 351.344 813.217 352.312 810.374 353.885 807.892 356.125 805.829 358.916 804.37 362.2 803.453 365.99 803.143 370.255 803.384 373.938 804.064 377.276 805.16 380.258 806.731 382.857 809.336 385.583 812.476 387.515 816.301 388.669 820.759 389.035 826.256 388.364 830.731 386.307 834.112 382.987 836.26 378.853 827.455 377.348 826.607 379.415C826.588 379.461 826.563 379.503 826.532 379.541L825.157 381.229C825.115 381.28 825.064 381.322 825.005 381.354L823.255 382.291C823.204 382.319 823.148 382.337 823.09 382.345L820.903 382.658C820.846 382.666 820.789 382.664 820.734 382.653L817.609 382.028C817.54 382.014 817.475 381.986 817.418 381.946L814.856 380.134C814.799 380.093 814.751 380.041 814.715 379.981L812.965 377.044C812.932 376.989 812.911 376.929 812.901 376.866L812.276 372.929C812.253 372.784 812.294 372.637 812.389 372.526 812.484 372.414 812.623 372.35 812.769 372.35L837.001 372.35 836.834 367.594 835.974 363.11 834.573 359.334 832.514 356.367 829.974 354.009 827.011 352.376 823.613 351.345ZM692.163 351.038 688.789 351.156 685.826 351.65 683.406 352.437 681.454 353.501 678.442 356.693 676.67 360.722 684.61 362.166 685.507 360.319C685.53 360.273 685.56 360.23 685.596 360.192L686.971 358.755C687.017 358.706 687.073 358.667 687.135 358.641L688.885 357.891C688.931 357.871 688.979 357.859 689.028 357.853L691.341 357.603C691.374 357.6 691.408 357.599 691.441 357.603L694.754 357.915C694.807 357.92 694.859 357.934 694.907 357.955L696.907 358.83C696.996 358.869 697.072 358.933 697.125 359.014L698.188 360.639C698.227 360.699 698.253 360.766 698.264 360.837L698.639 363.274C698.642 363.3 698.644 363.325 698.644 363.35L698.644 364.35C698.644 364.563 698.509 364.753 698.308 364.823L696.66 365.393 694.497 366.027 691.803 366.591 688.634 367.212 684.196 368.256 680.937 369.486 678.608 371.038 676.888 373.114 675.819 375.607 675.459 378.486 675.638 380.694 676.232 382.652 677.243 384.437 678.615 386.047 680.337 387.354 682.371 388.251 684.725 388.855 687.325 389.036 690.419 388.733 693.319 387.827 695.987 386.311 698.58 384.212C698.708 384.108 698.88 384.074 699.038 384.122 699.197 384.169 699.321 384.292 699.371 384.45L699.749 385.646 700.239 387.303 700.556 388.163 709.209 388.163 708.413 386.236 707.726 383.799C707.719 383.775 707.714 383.751 707.711 383.726L707.332 380.74 707.207 376.407 707.332 364.923 707.272 361.964 707.031 359.582 706.602 357.621 706.083 356.295 704.372 354.23 701.732 352.55 700 351.893 697.848 351.411 695.187 351.162ZM717.332 350.85 727.207 350.85C727.483 350.85 727.707 351.074 727.707 351.35L727.707 368.538 727.769 372.092 727.832 374.839 728.017 376.868 728.248 378.006 728.936 379.497 730 380.562 731.538 381.302 733.386 381.533 735.615 381.181 737.612 380.183 739.185 378.784 740.172 376.984 740.469 375.677 740.71 373.604 740.832 370.704 740.894 367.092 740.894 351.35C740.894 351.074 741.118 350.85 741.394 350.85L751.269 350.85C751.546 350.85 751.769 351.074 751.769 351.35L751.769 388.663C751.769 388.939 751.546 389.163 751.269 389.163L742.082 389.163C741.806 389.163 741.582 388.939 741.582 388.663L741.582 384.448 740.148 386.114C740.119 386.148 740.085 386.179 740.047 386.204L737.047 388.204C737.016 388.225 736.983 388.242 736.948 388.255L733.51 389.567C733.472 389.582 733.432 389.592 733.392 389.597L729.767 390.034C729.727 390.039 729.686 390.039 729.646 390.034L726.083 389.597C726.045 389.592 726.006 389.583 725.97 389.569L722.782 388.381C722.734 388.364 722.69 388.338 722.649 388.307L720.087 386.307C720.043 386.273 720.006 386.232 719.975 386.186L718.225 383.498C718.198 383.456 718.177 383.409 718.163 383.361L717.163 379.798C717.154 379.765 717.148 379.731 717.146 379.696L716.833 375.009 716.832 351.35C716.832 351.074 717.056 350.85 717.332 350.85ZM775.034 350.04C775.069 350.037 775.104 350.037 775.138 350.041L778.451 350.416C778.491 350.421 778.531 350.43 778.57 350.445L781.57 351.57C781.607 351.584 781.643 351.602 781.676 351.625L784.426 353.5C784.46 353.523 784.492 353.551 784.519 353.582L786.019 355.28 786.019 351.35C786.019 351.074 786.243 350.85 786.519 350.85L795.707 350.85C795.983 350.85 796.207 351.074 796.207 351.35L796.207 384.85 796.144 387.985 795.956 390.698 795.64 392.982 795.126 394.858C795.12 394.883 795.111 394.906 795.101 394.929L793.788 397.867C793.771 397.906 793.749 397.942 793.722 397.975L791.972 400.163C791.945 400.197 791.912 400.228 791.877 400.254L789.564 401.942C789.533 401.964 789.5 401.983 789.465 401.998L786.528 403.248C786.499 403.26 786.47 403.27 786.439 403.276L782.752 404.089C782.725 404.095 782.698 404.098 782.671 404.1L778.046 404.35 773.623 404.162 769.812 403.531C769.786 403.527 769.761 403.52 769.736 403.512L766.736 402.512C766.699 402.5 766.664 402.483 766.63 402.463L764.318 401.025C764.285 401.005 764.255 400.981 764.228 400.954L762.478 399.204C762.453 399.179 762.431 399.151 762.412 399.121L761.162 397.184C761.14 397.15 761.122 397.113 761.109 397.075L760.359 394.888C760.347 394.852 760.339 394.815 760.335 394.778L760.085 392.403C760.082 392.377 760.081 392.35 760.083 392.324L760.145 391.137C760.152 390.998 760.217 390.869 760.323 390.78 760.429 390.691 760.567 390.65 760.705 390.667L771.955 392.042C772.151 392.065 772.314 392.202 772.372 392.391L772.846 393.93 773.527 394.821 775.149 395.548 777.645 395.786 780.91 395.483 783.197 394.662 784.184 393.785 784.916 392.433 785.215 390.762 785.332 388.078 785.332 383.961 783.828 385.623C783.804 385.65 783.777 385.674 783.747 385.695L781.122 387.57C781.089 387.594 781.052 387.613 781.014 387.629L778.139 388.754C778.099 388.769 778.057 388.78 778.014 388.785L774.764 389.16C774.728 389.164 774.691 389.164 774.655 389.16L771.092 388.785C771.05 388.781 771.009 388.771 770.97 388.756L767.782 387.569C767.741 387.554 767.703 387.533 767.667 387.508L764.855 385.508C764.822 385.485 764.792 385.458 764.766 385.427L762.391 382.677C762.369 382.652 762.349 382.624 762.333 382.594L760.833 379.907C760.819 379.882 760.807 379.856 760.798 379.83L759.736 376.83 759.03 373.516C759.025 373.491 759.021 373.465 759.02 373.439L758.833 369.814 759.146 365.315 759.968 361.434C759.975 361.401 759.985 361.369 759.998 361.339L761.436 358.026C761.449 357.995 761.466 357.965 761.486 357.937L763.423 355.187C763.444 355.158 763.467 355.132 763.493 355.108L765.868 352.92C765.897 352.893 765.929 352.87 765.963 352.851L768.651 351.351C768.68 351.335 768.711 351.322 768.742 351.312L771.68 350.374C771.714 350.363 771.749 350.356 771.784 350.353ZM819.809 350.039 823.746 350.352C823.782 350.355 823.818 350.361 823.852 350.372L827.352 351.434C827.385 351.445 827.418 351.458 827.448 351.475L830.511 353.162C830.546 353.182 830.58 353.206 830.61 353.234L833.235 355.671C833.261 355.696 833.285 355.723 833.305 355.753L835.43 358.815C835.454 358.85 835.474 358.887 835.488 358.926L836.926 362.801C836.935 362.827 836.943 362.854 836.948 362.881L837.823 367.444C837.828 367.469 837.831 367.495 837.832 367.52L838.019 372.833C838.024 372.968 837.973 373.1 837.879 373.198 837.785 373.295 837.655 373.35 837.519 373.35L813.355 373.35 813.873 376.615 815.52 379.378 817.909 381.068 820.846 381.656 822.861 381.368 824.445 380.519 825.71 378.967 826.682 376.598C826.771 376.382 826.998 376.256 827.229 376.295L837.104 377.983C837.261 378.009 837.396 378.11 837.467 378.253 837.538 378.396 837.537 378.564 837.463 378.706L834.963 383.518C834.939 383.565 834.907 383.608 834.87 383.645L831.37 387.082C831.328 387.123 831.281 387.156 831.228 387.18L826.603 389.305C826.556 389.326 826.506 389.34 826.455 389.347L820.83 390.034C820.796 390.038 820.762 390.039 820.728 390.036L816.166 389.661C816.131 389.658 816.096 389.652 816.063 389.642L812.125 388.454C812.084 388.442 812.044 388.424 812.007 388.401L808.757 386.401C808.721 386.379 808.687 386.352 808.658 386.321L805.97 383.508C805.945 383.482 805.923 383.453 805.904 383.422L804.279 380.734C804.262 380.707 804.249 380.678 804.238 380.648L803.113 377.585C803.104 377.562 803.097 377.537 803.092 377.513L802.404 374.138 802.146 370.321 802.458 365.877C802.46 365.85 802.464 365.822 802.471 365.795L803.408 361.92C803.416 361.891 803.425 361.862 803.438 361.835L804.938 358.46C804.952 358.427 804.971 358.395 804.992 358.366L807.117 355.491C807.137 355.464 807.16 355.439 807.184 355.417L809.747 353.104C809.775 353.079 809.806 353.056 809.84 353.038L812.777 351.413C812.807 351.397 812.838 351.383 812.87 351.373L816.057 350.373C816.092 350.362 816.127 350.355 816.163 350.352L819.726 350.04C819.753 350.037 819.781 350.037 819.809 350.039ZM692.126 350.038 695.227 350.163 697.941 350.415 700.253 350.925C700.276 350.93 700.299 350.937 700.322 350.945L702.134 351.633C702.166 351.645 702.197 351.66 702.225 351.679L704.975 353.429C705.019 353.457 705.059 353.491 705.092 353.531L706.904 355.719C706.938 355.76 706.966 355.806 706.985 355.856L707.547 357.293C707.557 357.318 707.565 357.343 707.57 357.369L708.008 359.369 708.267 361.862 708.332 364.902 708.207 376.418 708.332 380.711 708.698 383.563 709.376 385.965 710.419 388.471C710.483 388.626 710.465 388.802 710.373 388.941 710.28 389.079 710.124 389.163 709.957 389.163L700.207 389.163C699.997 389.163 699.81 389.032 699.738 388.836L699.3 387.648 698.79 385.93 698.639 385.451 696.584 387.114C696.563 387.131 696.54 387.147 696.516 387.16L693.766 388.723C693.735 388.74 693.703 388.754 693.669 388.765L690.669 389.703C690.636 389.713 690.602 389.72 690.568 389.723L687.381 390.035C687.353 390.038 687.325 390.039 687.297 390.037L684.61 389.849C684.579 389.847 684.549 389.842 684.52 389.835L682.083 389.21C682.056 389.203 682.03 389.194 682.005 389.183L679.88 388.245C679.844 388.23 679.811 388.21 679.78 388.186L677.967 386.811C677.938 386.789 677.912 386.765 677.889 386.737L676.451 385.05C676.431 385.025 676.412 384.999 676.397 384.972L675.334 383.097C675.316 383.065 675.302 383.031 675.291 382.995L674.666 380.933C674.656 380.899 674.649 380.864 674.646 380.828L674.458 378.516C674.456 378.482 674.456 378.447 674.461 378.413L674.836 375.413C674.842 375.367 674.854 375.321 674.872 375.278L675.997 372.653C676.016 372.609 676.041 372.568 676.072 372.531L677.884 370.344C677.915 370.306 677.952 370.274 677.992 370.247L680.43 368.622C680.461 368.601 680.495 368.583 680.53 368.57L683.843 367.32 688.404 366.239 691.611 365.61 694.292 365.048 696.378 364.433 697.644 363.994 697.644 363.389 697.292 361.096 696.37 359.686 694.58 358.903 691.398 358.603 689.21 358.839 687.623 359.52 686.372 360.827 685.344 362.944C685.246 363.146 685.026 363.257 684.805 363.217L675.867 361.592C675.717 361.565 675.587 361.47 675.515 361.335 675.443 361.2 675.438 361.039 675.499 360.899L677.562 356.212C677.585 356.159 677.617 356.111 677.656 356.07L680.781 352.757C680.817 352.719 680.859 352.687 680.905 352.661L682.967 351.536C682.995 351.522 683.023 351.509 683.052 351.5L685.552 350.687C685.576 350.68 685.6 350.674 685.625 350.67L688.625 350.17ZM645.404 336.789 638.751 337.405 633.294 339.306 630.309 341.072 627.682 343.272 625.483 345.777 623.661 348.622 622.176 351.839 621.198 355.192 620.519 358.812 620.333 362.711 621.073 369.804 623.289 376.268 624.935 379.132 626.95 381.698 629.328 383.892 632.111 385.712 635.204 387.197 638.478 388.232 642.114 388.851 645.948 389.099 652.174 388.482 658.343 386.693 663.761 384.169 667.519 381.35 667.519 361.538 646.082 361.538 646.082 369.225 657.519 369.225C657.796 369.225 658.019 369.449 658.019 369.725L658.019 376.288C658.019 376.458 657.933 376.616 657.79 376.708L655.107 378.428 652.044 379.865C652.021 379.877 651.996 379.886 651.97 379.893L648.72 380.831C648.691 380.839 648.66 380.845 648.629 380.848L645.316 381.161C645.284 381.164 645.252 381.164 645.22 381.16L642.095 380.848C642.065 380.845 642.035 380.839 642.006 380.831L639.193 380.018C639.156 380.008 639.121 379.993 639.087 379.974L636.525 378.536C636.491 378.518 636.46 378.495 636.432 378.469L634.245 376.469C634.216 376.443 634.191 376.414 634.169 376.382L632.419 373.82C632.399 373.791 632.383 373.76 632.37 373.728L631.057 370.541C631.045 370.511 631.035 370.48 631.029 370.448L630.27 366.63 630.02 362.319 630.27 358.319C630.272 358.294 630.275 358.27 630.28 358.246L631.03 354.746C631.038 354.712 631.049 354.678 631.063 354.646L632.375 351.709C632.389 351.678 632.406 351.649 632.426 351.621L634.176 349.184C634.199 349.151 634.226 349.122 634.256 349.096L636.444 347.221C636.47 347.198 636.498 347.179 636.528 347.162L639.028 345.787C639.062 345.769 639.097 345.755 639.133 345.744L642.008 344.932C642.04 344.923 642.073 344.917 642.106 344.914L645.356 344.664C645.391 344.662 645.427 344.663 645.462 344.667L649.587 345.23C649.639 345.237 649.689 345.252 649.736 345.275L653.111 346.9C653.164 346.925 653.211 346.959 653.252 347.001L655.815 349.626C655.854 349.667 655.887 349.714 655.911 349.765L657.31 352.787 666.695 351.024 665.866 348.224 664.405 345.364 662.524 342.816 660.101 340.696 657.181 338.992 653.825 337.772 649.867 337.037ZM645.422 335.789 649.922 336.039 654.048 336.796C654.075 336.801 654.102 336.809 654.128 336.818L657.565 338.068C657.593 338.078 657.62 338.091 657.646 338.106L660.646 339.856C660.674 339.872 660.7 339.891 660.724 339.912L663.224 342.099C663.251 342.123 663.275 342.149 663.297 342.178L665.234 344.803C665.25 344.825 665.265 344.849 665.277 344.873L666.777 347.81C666.791 347.838 666.803 347.866 666.811 347.896L667.811 351.271C667.852 351.406 667.832 351.553 667.759 351.674 667.685 351.794 667.563 351.878 667.424 351.904L657.112 353.842C656.887 353.884 656.662 353.768 656.566 353.56L655.039 350.263 652.598 347.763 649.374 346.21 645.38 345.665 642.232 345.908 639.46 346.691 637.056 348.014 634.953 349.816 633.268 352.163 631.997 355.006 631.266 358.419 631.018 362.382 631.269 366.571 632 370.204 633.274 373.299 634.962 375.771 637.064 377.693 639.526 379.074 642.239 379.857 645.271 380.161 648.488 379.857 651.655 378.943 654.682 377.523 657.019 376.015 657.019 370.225 645.582 370.225C645.306 370.225 645.082 370.002 645.082 369.725L645.082 361.038C645.082 360.762 645.306 360.538 645.582 360.538L668.019 360.538C668.296 360.538 668.519 360.762 668.519 361.038L668.519 381.6C668.519 381.758 668.445 381.906 668.319 382L664.319 385C664.292 385.021 664.262 385.039 664.231 385.054L658.731 387.616C658.707 387.627 658.683 387.636 658.659 387.643L652.409 389.456C652.379 389.464 652.349 389.47 652.319 389.473L646.006 390.098C645.979 390.101 645.952 390.101 645.925 390.099L642.05 389.849 638.311 389.218 634.869 388.14C634.847 388.133 634.824 388.124 634.803 388.114L631.678 386.614 628.746 384.707C628.723 384.691 628.701 384.674 628.68 384.655L626.243 382.405C626.223 382.387 626.205 382.368 626.189 382.347L624.126 379.722C624.111 379.703 624.098 379.683 624.086 379.662L622.398 376.724C622.382 376.697 622.369 376.668 622.359 376.638L620.109 370.075C620.097 370.039 620.089 370.002 620.085 369.965L619.335 362.777C619.332 362.752 619.331 362.727 619.332 362.702L619.52 358.764 620.215 355.009 621.227 351.523C621.234 351.499 621.242 351.476 621.253 351.453L622.753 348.203 624.66 345.206C624.674 345.185 624.689 345.165 624.706 345.145L626.956 342.583C626.973 342.564 626.991 342.546 627.011 342.529L629.698 340.279C629.719 340.262 629.741 340.246 629.765 340.233L632.827 338.42C632.856 338.403 632.886 338.389 632.917 338.378L638.48 336.441C638.518 336.427 638.558 336.419 638.598 336.415L645.348 335.79C645.373 335.788 645.398 335.787 645.422 335.789Z" fill="#00B050" fill-rule="evenodd"/><path d="M695.77 368.402C694.504 368.823 692.5 369.327 689.758 369.913 687.016 370.499 685.223 371.073 684.379 371.636 683.09 372.55 682.446 373.71 682.446 375.116 682.446 376.499 682.961 377.695 683.992 378.702 685.024 379.71 686.336 380.214 687.93 380.214 689.711 380.214 691.41 379.628 693.028 378.456 694.223 377.566 695.008 376.476 695.383 375.187 695.641 374.343 695.77 372.737 695.77 370.37ZM818.004 355.71C815.848 355.71 814.067 356.495 812.66 358.066 811.254 359.636 810.563 361.769 810.586 364.464L825.352 364.464C825.281 361.605 824.543 359.431 823.137 357.943 821.731 356.454 820.02 355.71 818.004 355.71ZM775.235 355.71C772.867 355.71 770.916 356.63 769.381 358.47 767.846 360.31 767.078 363.116 767.078 366.89 767.078 370.851 767.846 373.751 769.381 375.591 770.916 377.431 772.809 378.351 775.059 378.351 777.473 378.351 779.512 377.407 781.176 375.521 782.84 373.634 783.672 370.839 783.672 367.136 783.672 363.269 782.875 360.398 781.281 358.523 779.688 356.648 777.672 355.71 775.235 355.71ZM714.957 348.995 724.836 348.995 724.836 366.152C724.836 371.402 725.018 374.618 725.381 375.802 725.744 376.986 726.406 377.923 727.367 378.614 728.328 379.306 729.547 379.652 731.024 379.652 732.711 379.652 734.223 379.189 735.559 378.263 736.895 377.337 737.809 376.189 738.301 374.818 738.793 373.446 739.039 370.089 739.039 364.745L739.039 348.995 748.918 348.995 748.918 386.331 739.742 386.331 739.742 380.741C738.383 382.734 736.596 384.304 734.381 385.452 732.166 386.601 729.828 387.175 727.367 387.175 724.86 387.175 722.61 386.624 720.617 385.523 718.625 384.421 717.184 382.874 716.293 380.882 715.403 378.89 714.957 376.136 714.957 372.62ZM817.406 348.152C822.961 348.152 827.344 349.986 830.555 353.654 833.766 357.321 835.301 362.941 835.16 370.511L810.41 370.511C810.481 373.441 811.278 375.72 812.801 377.349 814.324 378.978 816.223 379.792 818.496 379.792 820.043 379.792 821.344 379.37 822.399 378.527 823.453 377.683 824.25 376.323 824.789 374.448L834.633 376.101C833.367 379.71 831.369 382.458 828.639 384.345 825.908 386.232 822.492 387.175 818.391 387.175 811.899 387.175 807.094 385.054 803.977 380.812 801.516 377.413 800.285 373.124 800.285 367.945 800.285 361.757 801.903 356.911 805.137 353.407 808.371 349.904 812.461 348.152 817.406 348.152ZM772.703 348.152C777.321 348.152 781.129 350.179 784.129 354.234L784.129 348.995 793.375 348.995 793.375 382.499C793.375 386.905 793.012 390.198 792.285 392.378 791.559 394.558 790.539 396.269 789.227 397.511 787.914 398.753 786.162 399.726 783.971 400.429 781.78 401.132 779.008 401.484 775.656 401.484 769.328 401.484 764.84 400.4 762.192 398.232 759.543 396.064 758.219 393.316 758.219 389.987 758.219 389.659 758.231 389.261 758.254 388.792L769.539 390.163C769.727 391.476 770.16 392.378 770.84 392.87 771.778 393.573 773.254 393.925 775.27 393.925 777.848 393.925 779.781 393.538 781.071 392.765 781.938 392.249 782.594 391.417 783.039 390.269 783.344 389.448 783.496 387.937 783.496 385.734L783.496 380.284C780.543 384.316 776.817 386.331 772.317 386.331 767.301 386.331 763.328 384.21 760.399 379.968 758.102 376.616 756.953 372.445 756.953 367.452 756.953 361.195 758.459 356.413 761.471 353.109 764.483 349.804 768.227 348.152 772.703 348.152ZM689.758 348.152C694.164 348.152 697.446 348.673 699.602 349.716 701.758 350.759 703.276 352.083 704.155 353.689 705.033 355.294 705.473 358.241 705.473 362.53L705.367 374.062C705.367 377.343 705.526 379.763 705.842 381.321 706.158 382.88 706.75 384.55 707.617 386.331L697.844 386.331C697.586 385.675 697.27 384.702 696.895 383.413 696.731 382.827 696.614 382.441 696.543 382.253 694.856 383.894 693.051 385.124 691.129 385.945 689.207 386.765 687.156 387.175 684.977 387.175 681.133 387.175 678.104 386.132 675.889 384.046 673.674 381.96 672.567 379.323 672.567 376.136 672.567 374.027 673.071 372.146 674.078 370.493 675.086 368.841 676.498 367.575 678.315 366.696 680.131 365.818 682.75 365.05 686.172 364.394 690.789 363.527 693.989 362.718 695.77 361.968L695.77 360.984C695.77 359.085 695.301 357.732 694.364 356.923 693.426 356.114 691.656 355.71 689.055 355.71 687.297 355.71 685.926 356.056 684.942 356.747 683.957 357.439 683.16 358.652 682.551 360.386L673.586 358.769C674.594 355.159 676.328 352.487 678.789 350.753 681.25 349.019 684.906 348.152 689.758 348.152ZM643.039 333.913C649.438 333.913 654.436 335.255 658.033 337.939 661.631 340.622 663.946 344.331 664.977 349.066L654.641 350.999C653.914 348.468 652.549 346.47 650.545 345.005 648.541 343.54 646.039 342.808 643.039 342.808 638.492 342.808 634.877 344.249 632.194 347.132 629.51 350.015 628.168 354.292 628.168 359.964 628.168 366.081 629.528 370.669 632.246 373.728 634.965 376.786 638.528 378.316 642.934 378.316 645.114 378.316 647.299 377.888 649.49 377.032 651.682 376.177 653.563 375.14 655.133 373.921L655.133 367.382 643.215 367.382 643.215 358.698 665.645 358.698 665.645 379.23C663.465 381.339 660.307 383.196 656.17 384.802 652.033 386.407 647.844 387.21 643.602 387.21 638.211 387.21 633.512 386.079 629.504 383.818 625.496 381.556 622.485 378.321 620.469 374.114 618.453 369.907 617.446 365.331 617.446 360.386 617.446 355.019 618.571 350.249 620.821 346.077 623.071 341.905 626.364 338.706 630.699 336.48 634.004 334.769 638.117 333.913 643.039 333.913Z" stroke="#00B050" stroke-linejoin="round" stroke-miterlimit="10" fill="#A9D18E" fill-rule="evenodd"/><text fill="#000000" fill-opacity="0" font-family="Arial,Arial_MSFontService,sans-serif" font-size="67.5703" x="617.446" y="393.037">Gauge</text></g></svg>